<svg xmlns="http://www.w3.org/2000/svg" xmlns:xlink="http://www.w3.org/1999/xlink" width="1024" zoomAndPan="magnify" viewBox="0 0 768 767.999994" height="1024" preserveAspectRatio="xMidYMid meet" version="1.0"><defs><g/><clipPath id="d6f61aa297"><path d="M 174.460938 137.246094 L 594 137.246094 L 594 499.804688 L 174.460938 499.804688 Z M 174.460938 137.246094 " clip-rule="nonzero"/></clipPath><clipPath id="c626690240"><path d="M 215.902344 358.480469 L 317.71875 358.480469 L 317.71875 459 L 215.902344 459 Z M 215.902344 358.480469 " clip-rule="nonzero"/></clipPath></defs><rect x="-76.8" width="921.6" fill="#ffffff" y="-76.799999" height="921.599993" fill-opacity="1"/><rect x="-76.8" width="921.6" fill="#cae8ff" y="-76.799999" height="921.599993" fill-opacity="1"/><g fill="#050a30" fill-opacity="1"><g transform="translate(117.644528, 686.689666)"><g><path d="M 117.1875 -94.5 L 138.515625 -94.5 L 109.484375 0 L 91.265625 0 L 70.0625 -52.921875 L 49.6875 0 L 31.453125 0 L 1.625 -94.5 L 23.359375 -94.5 L 41.84375 -31.71875 L 66.6875 -93.5625 L 73.578125 -93.5625 L 99.09375 -31.71875 Z M 117.1875 -94.5 "/></g></g></g><g fill="#050a30" fill-opacity="1"><g transform="translate(258.179574, 686.689666)"><g><path d="M 73.578125 0 L 66.953125 -17.953125 L 29.296875 -17.953125 L 22.8125 0 L 1.21875 0 L 38.203125 -94.5 L 57.515625 -94.5 L 95.71875 0 Z M 48.0625 -69.53125 L 35.78125 -35.78125 L 60.484375 -35.78125 Z M 48.0625 -69.53125 "/></g></g></g><g fill="#050a30" fill-opacity="1"><g transform="translate(355.109607, 686.689666)"><g><path d="M 31.3125 -19.03125 L 67.5 -19.03125 L 67.5 0 L 10.796875 0 L 10.796875 -94.5 L 31.3125 -94.5 Z M 31.3125 -19.03125 "/></g></g></g><g fill="#050a30" fill-opacity="1"><g transform="translate(425.57962, 686.689666)"><g><path d="M 31.3125 -19.03125 L 67.5 -19.03125 L 67.5 0 L 10.796875 0 L 10.796875 -94.5 L 31.3125 -94.5 Z M 31.3125 -19.03125 "/></g></g></g><g fill="#050a30" fill-opacity="1"><g transform="translate(496.049633, 686.689666)"><g><path d="M 31.3125 -19.03125 L 68.984375 -19.03125 L 68.984375 0 L 10.796875 0 L 10.796875 -94.5 L 67.5 -94.5 L 67.5 -75.59375 L 31.3125 -75.59375 L 31.3125 -56.96875 L 63.984375 -56.96875 L 63.984375 -38.46875 L 31.3125 -38.46875 Z M 31.3125 -19.03125 "/></g></g></g><g fill="#050a30" fill-opacity="1"><g transform="translate(571.514672, 686.689666)"><g><path d="M 76 -94.5 L 76 -75.46875 L 49.6875 -75.46875 L 49.6875 0 L 29.15625 0 L 29.15625 -75.46875 L 2.96875 -75.46875 L 2.96875 -94.5 Z M 76 -94.5 "/></g></g></g><g clip-path="url(#d6f61aa297)"><path fill="#050a30" d="M 473.296875 173.636719 L 524.9375 173.636719 C 525.890625 173.636719 526.835938 173.683594 527.78125 173.777344 C 528.726562 173.871094 529.667969 174.011719 530.597656 174.195312 C 531.53125 174.382812 532.453125 174.613281 533.359375 174.890625 C 534.269531 175.164062 535.164062 175.484375 536.042969 175.847656 C 536.917969 176.214844 537.777344 176.621094 538.617188 177.066406 C 539.453125 177.515625 540.265625 178.003906 541.058594 178.53125 C 541.847656 179.058594 542.609375 179.625 543.34375 180.230469 C 544.078125 180.832031 544.78125 181.46875 545.453125 182.140625 C 546.125 182.8125 546.761719 183.515625 547.367188 184.25 C 547.96875 184.988281 548.535156 185.75 549.0625 186.539062 C 549.589844 187.328125 550.078125 188.144531 550.523438 188.980469 C 550.972656 189.820312 551.378906 190.679688 551.742188 191.554688 C 552.105469 192.433594 552.425781 193.328125 552.699219 194.238281 C 552.976562 195.144531 553.207031 196.066406 553.394531 197 C 553.578125 197.929688 553.71875 198.871094 553.808594 199.816406 C 553.902344 200.761719 553.949219 201.710938 553.949219 202.660156 L 553.949219 267.734375 C 553.949219 272.621094 553.949219 276.289062 551.503906 281.175781 L 558.839844 281.175781 C 583.644531 281.175781 593.054688 295.839844 593.054688 314.171875 L 593.054688 359.386719 C 593.054688 377.71875 586.089844 393.601562 558.839844 393.601562 L 551.503906 393.601562 C 553.949219 397.269531 553.949219 402.15625 553.949219 407.046875 L 553.949219 470.859375 C 553.949219 471.8125 553.902344 472.757812 553.808594 473.703125 C 553.71875 474.648438 553.578125 475.589844 553.390625 476.519531 C 553.207031 477.453125 552.976562 478.371094 552.699219 479.28125 C 552.425781 480.191406 552.105469 481.085938 551.742188 481.960938 C 551.378906 482.839844 550.972656 483.699219 550.523438 484.535156 C 550.078125 485.375 549.589844 486.1875 549.0625 486.976562 C 548.53125 487.769531 547.96875 488.53125 547.363281 489.265625 C 546.761719 490 546.125 490.703125 545.453125 491.375 C 544.78125 492.046875 544.078125 492.683594 543.34375 493.285156 C 542.609375 493.890625 541.847656 494.453125 541.054688 494.984375 C 540.265625 495.511719 539.453125 496 538.613281 496.445312 C 537.777344 496.894531 536.917969 497.300781 536.039062 497.664062 C 535.164062 498.027344 534.269531 498.347656 533.359375 498.621094 C 532.449219 498.898438 531.53125 499.128906 530.597656 499.3125 C 529.667969 499.5 528.726562 499.640625 527.78125 499.730469 C 526.835938 499.824219 525.890625 499.871094 524.9375 499.871094 L 200 499.871094 C 199.179688 499.871094 198.363281 499.828125 197.546875 499.746094 C 196.730469 499.664062 195.921875 499.539062 195.117188 499.378906 C 194.3125 499.21875 193.519531 499.015625 192.738281 498.777344 C 191.953125 498.539062 191.183594 498.261719 190.425781 497.949219 C 189.667969 497.632812 188.929688 497.285156 188.207031 496.898438 C 187.484375 496.511719 186.78125 496.089844 186.101562 495.632812 C 185.417969 495.179688 184.761719 494.691406 184.125 494.171875 C 183.492188 493.652344 182.886719 493.101562 182.304688 492.523438 C 181.726562 491.945312 181.175781 491.339844 180.65625 490.707031 C 180.132812 490.074219 179.644531 489.414062 179.1875 488.734375 C 178.730469 488.054688 178.308594 487.351562 177.921875 486.632812 C 177.53125 485.910156 177.179688 485.171875 176.863281 484.414062 C 176.550781 483.65625 176.269531 482.886719 176.03125 482.105469 C 175.789062 481.320312 175.585938 480.527344 175.425781 479.722656 C 175.261719 478.921875 175.136719 478.113281 175.054688 477.296875 C 174.96875 476.480469 174.925781 475.664062 174.921875 474.84375 L 174.921875 203.882812 C 174.925781 202.890625 174.976562 201.90625 175.074219 200.921875 C 175.175781 199.9375 175.324219 198.957031 175.519531 197.988281 C 175.710938 197.019531 175.953125 196.058594 176.242188 195.113281 C 176.53125 194.167969 176.867188 193.238281 177.246094 192.324219 C 177.625 191.410156 178.050781 190.515625 178.515625 189.644531 C 178.984375 188.773438 179.492188 187.925781 180.042969 187.101562 C 180.59375 186.28125 181.183594 185.484375 181.8125 184.722656 C 182.4375 183.957031 183.101562 183.222656 183.800781 182.523438 C 184.5 181.824219 185.234375 181.160156 186 180.53125 C 186.761719 179.902344 187.554688 179.316406 188.378906 178.765625 C 189.199219 178.214844 190.046875 177.703125 190.917969 177.238281 C 191.792969 176.769531 192.683594 176.34375 193.597656 175.964844 C 194.511719 175.585938 195.441406 175.25 196.386719 174.960938 C 197.335938 174.671875 198.292969 174.429688 199.261719 174.234375 C 200.234375 174.039062 201.210938 173.890625 202.195312 173.789062 C 203.179688 173.691406 204.167969 173.640625 205.15625 173.636719 L 369.421875 173.636719 L 445.1875 138.199219 C 450.078125 135.753906 456.1875 138.199219 458.632812 143.085938 Z M 473.296875 173.636719 " fill-opacity="1" fill-rule="nonzero"/></g><path fill="#5cb6f9" d="M 476.167969 281.6875 L 524.621094 281.480469 C 529.507812 280.257812 534.398438 273.84375 534.398438 267.734375 L 534.398438 233.515625 L 231.332031 233.515625 C 225.222656 233.515625 220.332031 228.628906 220.332031 223.738281 C 220.332031 223.019531 220.402344 222.300781 220.542969 221.59375 C 220.6875 220.886719 220.894531 220.199219 221.171875 219.53125 C 221.445312 218.863281 221.785156 218.230469 222.1875 217.628906 C 222.589844 217.027344 223.042969 216.472656 223.554688 215.964844 C 224.066406 215.453125 224.621094 214.996094 225.222656 214.59375 C 225.820312 214.195312 226.457031 213.855469 227.121094 213.578125 C 227.789062 213.300781 228.476562 213.09375 229.1875 212.953125 C 229.894531 212.8125 230.609375 212.742188 231.332031 212.742188 L 287.546875 212.742188 L 326.652344 194.410156 L 209.140625 194.410156 C 208.257812 194.417969 207.386719 194.511719 206.527344 194.6875 C 205.664062 194.867188 204.824219 195.125 204.015625 195.464844 C 203.203125 195.808594 202.429688 196.222656 201.699219 196.714844 C 200.96875 197.203125 200.292969 197.761719 199.667969 198.382812 C 199.046875 199.007812 198.492188 199.683594 198 200.414062 C 197.507812 201.144531 197.09375 201.917969 196.753906 202.726562 C 196.414062 203.539062 196.152344 204.378906 195.976562 205.238281 C 195.796875 206.101562 195.707031 206.972656 195.699219 207.855469 L 195.699219 466.925781 C 195.707031 467.804688 195.796875 468.675781 195.976562 469.539062 C 196.152344 470.402344 196.414062 471.238281 196.753906 472.050781 C 197.09375 472.863281 197.507812 473.632812 198 474.367188 C 198.492188 475.097656 199.046875 475.773438 199.667969 476.394531 C 200.292969 477.019531 200.96875 477.574219 201.699219 478.066406 C 202.429688 478.554688 203.203125 478.972656 204.015625 479.3125 C 204.824219 479.652344 205.664062 479.914062 206.527344 480.089844 C 207.386719 480.265625 208.257812 480.359375 209.140625 480.367188 L 520.953125 480.367188 C 521.835938 480.359375 522.707031 480.265625 523.570312 480.089844 C 524.429688 479.914062 525.269531 479.652344 526.082031 479.3125 C 526.890625 478.972656 527.664062 478.554688 528.394531 478.066406 C 529.125 477.574219 529.800781 477.019531 530.425781 476.394531 C 531.046875 475.773438 531.605469 475.097656 532.09375 474.367188 C 532.585938 473.632812 533 472.863281 533.34375 472.050781 C 533.683594 471.238281 533.941406 470.402344 534.117188 469.539062 C 534.296875 468.675781 534.390625 467.804688 534.398438 466.925781 L 534.398438 407.046875 C 534.390625 406.164062 534.296875 405.292969 534.117188 404.429688 C 533.941406 403.570312 533.683594 402.730469 533.34375 401.921875 C 533 401.109375 532.585938 400.335938 532.09375 399.605469 C 531.605469 398.875 531.046875 398.199219 530.425781 397.574219 C 529.800781 396.953125 529.125 396.398438 528.394531 395.90625 C 527.664062 395.414062 526.890625 395 526.082031 394.660156 C 525.269531 394.316406 524.429688 394.058594 523.570312 393.882812 C 522.707031 393.703125 521.835938 393.609375 520.953125 393.601562 L 459.058594 393.601562 C 431.796875 393.601562 426.0625 378.9375 426.0625 359.386719 L 426.0625 314.171875 C 426.0625 283.621094 446.839844 281.6875 476.167969 281.6875 Z M 476.167969 281.6875 " fill-opacity="1" fill-rule="nonzero"/><path fill="#f4f6fc" d="M 335.207031 212.742188 L 469.628906 212.742188 L 443.964844 161.429688 Z M 335.207031 212.742188 " fill-opacity="1" fill-rule="nonzero"/><path fill="#233dff" d="M 492.847656 212.742188 L 534.398438 212.742188 L 534.398438 207.855469 C 534.390625 206.972656 534.296875 206.101562 534.121094 205.238281 C 533.941406 204.378906 533.683594 203.539062 533.34375 202.726562 C 533 201.917969 532.585938 201.144531 532.09375 200.414062 C 531.605469 199.683594 531.046875 199.007812 530.425781 198.382812 C 529.800781 197.761719 529.125 197.203125 528.394531 196.714844 C 527.664062 196.222656 526.890625 195.808594 526.082031 195.464844 C 525.269531 195.125 524.429688 194.867188 523.570312 194.6875 C 522.707031 194.511719 521.835938 194.417969 520.953125 194.410156 L 483.070312 194.410156 Z M 492.847656 212.742188 " fill-opacity="1" fill-rule="nonzero"/><path fill="#5cb6f9" d="M 558.839844 301.949219 L 459.058594 301.949219 C 451.726562 301.949219 446.839844 306.839844 446.839844 314.171875 L 446.839844 359.386719 C 446.839844 366.71875 451.726562 372.828125 459.058594 372.828125 L 558.839844 372.828125 C 559.71875 372.820312 560.589844 372.726562 561.453125 372.550781 C 562.316406 372.371094 563.152344 372.113281 563.964844 371.773438 C 564.777344 371.433594 565.546875 371.015625 566.277344 370.527344 C 567.007812 370.035156 567.6875 369.480469 568.308594 368.855469 C 568.929688 368.234375 569.488281 367.558594 569.976562 366.824219 C 570.46875 366.09375 570.882812 365.324219 571.226562 364.511719 C 571.566406 363.699219 571.824219 362.863281 572.003906 362 C 572.179688 361.136719 572.273438 360.265625 572.28125 359.386719 L 572.28125 314.171875 C 572.28125 306.839844 566.171875 301.949219 558.839844 301.949219 Z M 558.839844 301.949219 " fill-opacity="1" fill-rule="nonzero"/><path fill="#050a30" d="M 502.304688 337.390625 C 502.304688 338.003906 502.277344 338.621094 502.214844 339.234375 C 502.15625 339.847656 502.066406 340.453125 501.945312 341.058594 C 501.824219 341.664062 501.675781 342.257812 501.496094 342.847656 C 501.316406 343.4375 501.109375 344.019531 500.875 344.585938 C 500.640625 345.15625 500.375 345.710938 500.085938 346.253906 C 499.796875 346.796875 499.480469 347.324219 499.136719 347.839844 C 498.792969 348.351562 498.429688 348.84375 498.039062 349.320312 C 497.648438 349.796875 497.234375 350.253906 496.796875 350.6875 C 496.363281 351.125 495.90625 351.535156 495.429688 351.925781 C 494.953125 352.320312 494.460938 352.683594 493.949219 353.027344 C 493.4375 353.371094 492.910156 353.6875 492.363281 353.976562 C 491.820312 354.265625 491.265625 354.53125 490.695312 354.765625 C 490.128906 355 489.546875 355.207031 488.957031 355.386719 C 488.371094 355.566406 487.773438 355.714844 487.167969 355.835938 C 486.5625 355.957031 485.957031 356.046875 485.34375 356.105469 C 484.730469 356.167969 484.117188 356.195312 483.5 356.195312 C 482.882812 356.195312 482.269531 356.167969 481.65625 356.105469 C 481.042969 356.046875 480.433594 355.957031 479.832031 355.835938 C 479.226562 355.714844 478.628906 355.566406 478.039062 355.386719 C 477.449219 355.207031 476.871094 355 476.300781 354.765625 C 475.734375 354.53125 475.175781 354.265625 474.632812 353.976562 C 474.089844 353.6875 473.5625 353.371094 473.050781 353.027344 C 472.539062 352.683594 472.042969 352.320312 471.566406 351.925781 C 471.09375 351.535156 470.636719 351.125 470.199219 350.6875 C 469.765625 350.253906 469.351562 349.796875 468.960938 349.320312 C 468.570312 348.84375 468.203125 348.351562 467.863281 347.839844 C 467.519531 347.324219 467.203125 346.796875 466.914062 346.253906 C 466.621094 345.710938 466.359375 345.15625 466.125 344.585938 C 465.886719 344.019531 465.679688 343.4375 465.503906 342.847656 C 465.324219 342.257812 465.171875 341.664062 465.054688 341.058594 C 464.933594 340.453125 464.84375 339.847656 464.78125 339.234375 C 464.722656 338.621094 464.691406 338.003906 464.691406 337.390625 C 464.691406 336.773438 464.722656 336.160156 464.78125 335.546875 C 464.84375 334.933594 464.933594 334.324219 465.054688 333.71875 C 465.171875 333.117188 465.324219 332.519531 465.503906 331.929688 C 465.679688 331.339844 465.886719 330.761719 466.125 330.191406 C 466.359375 329.625 466.621094 329.066406 466.914062 328.523438 C 467.203125 327.980469 467.519531 327.453125 467.863281 326.941406 C 468.203125 326.429688 468.570312 325.933594 468.960938 325.457031 C 469.351562 324.980469 469.765625 324.527344 470.199219 324.089844 C 470.636719 323.65625 471.09375 323.242188 471.566406 322.851562 C 472.042969 322.460938 472.539062 322.09375 473.050781 321.753906 C 473.5625 321.410156 474.089844 321.09375 474.632812 320.804688 C 475.175781 320.511719 475.734375 320.25 476.300781 320.015625 C 476.871094 319.777344 477.449219 319.570312 478.039062 319.390625 C 478.628906 319.214844 479.226562 319.0625 479.832031 318.945312 C 480.433594 318.824219 481.042969 318.734375 481.65625 318.671875 C 482.269531 318.613281 482.882812 318.582031 483.5 318.582031 C 484.117188 318.582031 484.730469 318.613281 485.34375 318.671875 C 485.957031 318.734375 486.5625 318.824219 487.167969 318.945312 C 487.773438 319.0625 488.371094 319.214844 488.957031 319.390625 C 489.546875 319.570312 490.128906 319.777344 490.695312 320.015625 C 491.265625 320.25 491.820312 320.511719 492.363281 320.804688 C 492.910156 321.09375 493.4375 321.410156 493.949219 321.753906 C 494.460938 322.09375 494.953125 322.460938 495.429688 322.851562 C 495.90625 323.242188 496.363281 323.65625 496.796875 324.089844 C 497.234375 324.527344 497.648438 324.980469 498.039062 325.457031 C 498.429688 325.933594 498.792969 326.429688 499.136719 326.941406 C 499.480469 327.453125 499.796875 327.980469 500.085938 328.523438 C 500.375 329.066406 500.640625 329.625 500.875 330.191406 C 501.109375 330.761719 501.316406 331.339844 501.496094 331.929688 C 501.675781 332.519531 501.824219 333.117188 501.945312 333.71875 C 502.066406 334.324219 502.15625 334.933594 502.214844 335.546875 C 502.277344 336.160156 502.304688 336.773438 502.304688 337.390625 Z M 502.304688 337.390625 " fill-opacity="1" fill-rule="nonzero"/><g clip-path="url(#c626690240)"><path fill="#050a30" d="M 307.867188 458.707031 L 225.871094 458.707031 C 225.21875 458.707031 224.570312 458.644531 223.925781 458.515625 C 223.285156 458.386719 222.660156 458.199219 222.058594 457.949219 C 221.453125 457.699219 220.878906 457.390625 220.332031 457.027344 C 219.789062 456.664062 219.285156 456.25 218.824219 455.789062 C 218.359375 455.324219 217.949219 454.820312 217.582031 454.277344 C 217.21875 453.734375 216.914062 453.15625 216.664062 452.554688 C 216.414062 451.949219 216.222656 451.324219 216.09375 450.683594 C 215.96875 450.042969 215.902344 449.394531 215.902344 448.738281 L 215.902344 368.875 C 215.902344 368.21875 215.96875 367.570312 216.09375 366.929688 C 216.222656 366.285156 216.414062 365.664062 216.664062 365.058594 C 216.914062 364.453125 217.21875 363.878906 217.582031 363.335938 C 217.949219 362.792969 218.359375 362.289062 218.824219 361.824219 C 219.285156 361.363281 219.789062 360.949219 220.332031 360.585938 C 220.878906 360.222656 221.453125 359.914062 222.058594 359.664062 C 222.660156 359.414062 223.285156 359.226562 223.925781 359.097656 C 224.570312 358.96875 225.21875 358.90625 225.871094 358.90625 C 226.527344 358.90625 227.175781 358.96875 227.816406 359.097656 C 228.457031 359.226562 229.082031 359.414062 229.6875 359.664062 C 230.289062 359.914062 230.863281 360.222656 231.410156 360.585938 C 231.953125 360.949219 232.457031 361.363281 232.917969 361.824219 C 233.382812 362.289062 233.796875 362.792969 234.160156 363.335938 C 234.523438 363.878906 234.828125 364.453125 235.082031 365.058594 C 235.332031 365.664062 235.519531 366.285156 235.648438 366.929688 C 235.773438 367.570312 235.839844 368.21875 235.839844 368.875 L 235.839844 438.769531 L 307.867188 438.769531 C 308.523438 438.769531 309.171875 438.835938 309.8125 438.960938 C 310.453125 439.089844 311.078125 439.28125 311.683594 439.53125 C 312.285156 439.78125 312.859375 440.085938 313.40625 440.453125 C 313.949219 440.816406 314.453125 441.226562 314.914062 441.691406 C 315.378906 442.152344 315.792969 442.65625 316.15625 443.203125 C 316.519531 443.746094 316.824219 444.320312 317.078125 444.925781 C 317.328125 445.527344 317.515625 446.152344 317.644531 446.792969 C 317.769531 447.4375 317.835938 448.085938 317.835938 448.738281 C 317.835938 449.394531 317.769531 450.042969 317.644531 450.683594 C 317.515625 451.324219 317.328125 451.949219 317.078125 452.554688 C 316.824219 453.15625 316.519531 453.734375 316.15625 454.277344 C 315.792969 454.820312 315.378906 455.324219 314.914062 455.789062 C 314.453125 456.25 313.949219 456.664062 313.40625 457.027344 C 312.859375 457.390625 312.285156 457.699219 311.683594 457.949219 C 311.078125 458.199219 310.453125 458.386719 309.8125 458.515625 C 309.171875 458.644531 308.523438 458.707031 307.867188 458.707031 Z M 307.867188 458.707031 " fill-opacity="1" fill-rule="nonzero"/></g></svg>