<svg xmlns="http://www.w3.org/2000/svg" xmlns:xlink="http://www.w3.org/1999/xlink" width="160" zoomAndPan="magnify" viewBox="0 0 120 119.999999" height="160" preserveAspectRatio="xMidYMid meet" version="1.0"><defs><g/><clipPath id="e1422da704"><path d="M 27.257812 21.445312 L 92.832031 21.445312 L 92.832031 78.09375 L 27.257812 78.09375 Z M 27.257812 21.445312 " clip-rule="nonzero"/></clipPath><clipPath id="01a95cbcd8"><path d="M 33.734375 56.011719 L 49.644531 56.011719 L 49.644531 71.921875 L 33.734375 71.921875 Z M 33.734375 56.011719 " clip-rule="nonzero"/></clipPath></defs><rect x="-12" width="144" fill="#ffffff" y="-12" height="143.999998" fill-opacity="1"/><rect x="-12" width="144" fill="#cae8ff" y="-12" height="143.999998" fill-opacity="1"/><g fill="#050a30" fill-opacity="1"><g transform="translate(18.381958, 107.29526)"><g><path d="M 18.3125 -14.765625 L 21.640625 -14.765625 L 17.109375 0 L 14.265625 0 L 10.953125 -8.265625 L 7.765625 0 L 4.921875 0 L 0.25 -14.765625 L 3.65625 -14.765625 L 6.546875 -4.953125 L 10.421875 -14.625 L 11.5 -14.625 L 15.484375 -4.953125 Z M 18.3125 -14.765625 "/></g></g></g><g fill="#050a30" fill-opacity="1"><g transform="translate(40.340559, 107.29526)"><g><path d="M 11.5 0 L 10.46875 -2.8125 L 4.578125 -2.8125 L 3.5625 0 L 0.1875 0 L 5.96875 -14.765625 L 8.984375 -14.765625 L 14.953125 0 Z M 7.515625 -10.859375 L 5.59375 -5.59375 L 9.453125 -5.59375 Z M 7.515625 -10.859375 "/></g></g></g><g fill="#050a30" fill-opacity="1"><g transform="translate(55.485876, 107.29526)"><g><path d="M 4.890625 -2.96875 L 10.546875 -2.96875 L 10.546875 0 L 1.6875 0 L 1.6875 -14.765625 L 4.890625 -14.765625 Z M 4.890625 -2.96875 "/></g></g></g><g fill="#050a30" fill-opacity="1"><g transform="translate(66.496816, 107.29526)"><g><path d="M 4.890625 -2.96875 L 10.546875 -2.96875 L 10.546875 0 L 1.6875 0 L 1.6875 -14.765625 L 4.890625 -14.765625 Z M 4.890625 -2.96875 "/></g></g></g><g fill="#050a30" fill-opacity="1"><g transform="translate(77.507755, 107.29526)"><g><path d="M 4.890625 -2.96875 L 10.78125 -2.96875 L 10.78125 0 L 1.6875 0 L 1.6875 -14.765625 L 10.546875 -14.765625 L 10.546875 -11.8125 L 4.890625 -11.8125 L 4.890625 -8.90625 L 10 -8.90625 L 10 -6.015625 L 4.890625 -6.015625 Z M 4.890625 -2.96875 "/></g></g></g><g fill="#050a30" fill-opacity="1"><g transform="translate(89.299167, 107.29526)"><g><path d="M 11.875 -14.765625 L 11.875 -11.796875 L 7.765625 -11.796875 L 7.765625 0 L 4.5625 0 L 4.5625 -11.796875 L 0.46875 -11.796875 L 0.46875 -14.765625 Z M 11.875 -14.765625 "/></g></g></g><g clip-path="url(#e1422da704)"><path fill="#050a30" d="M 73.953125 27.128906 L 82.023438 27.128906 C 82.320312 27.128906 82.613281 27.160156 82.90625 27.21875 C 83.199219 27.277344 83.480469 27.363281 83.757812 27.476562 C 84.03125 27.589844 84.292969 27.730469 84.539062 27.894531 C 84.789062 28.0625 85.015625 28.25 85.226562 28.460938 C 85.4375 28.671875 85.625 28.898438 85.789062 29.148438 C 85.957031 29.394531 86.097656 29.65625 86.210938 29.929688 C 86.324219 30.207031 86.410156 30.488281 86.46875 30.78125 C 86.527344 31.074219 86.554688 31.367188 86.554688 31.664062 L 86.554688 41.832031 C 86.554688 42.597656 86.554688 43.171875 86.171875 43.933594 L 87.320312 43.933594 C 91.195312 43.933594 92.664062 46.226562 92.664062 49.089844 L 92.664062 56.152344 C 92.664062 59.019531 91.578125 61.5 87.320312 61.5 L 86.171875 61.5 C 86.554688 62.074219 86.554688 62.835938 86.554688 63.601562 L 86.554688 73.570312 C 86.554688 73.871094 86.527344 74.164062 86.46875 74.457031 C 86.410156 74.75 86.324219 75.03125 86.210938 75.308594 C 86.097656 75.582031 85.957031 75.84375 85.789062 76.089844 C 85.625 76.335938 85.4375 76.566406 85.226562 76.777344 C 85.015625 76.988281 84.789062 77.175781 84.539062 77.339844 C 84.292969 77.507812 84.03125 77.644531 83.757812 77.761719 C 83.480469 77.875 83.199219 77.960938 82.90625 78.019531 C 82.613281 78.074219 82.320312 78.105469 82.023438 78.105469 L 31.25 78.105469 C 30.730469 78.101562 30.234375 78.003906 29.753906 77.804688 C 29.273438 77.605469 28.851562 77.324219 28.484375 76.957031 C 28.117188 76.589844 27.835938 76.167969 27.636719 75.691406 C 27.433594 75.210938 27.335938 74.710938 27.332031 74.195312 L 27.332031 31.855469 C 27.332031 31.546875 27.363281 31.238281 27.425781 30.9375 C 27.484375 30.632812 27.574219 30.335938 27.695312 30.050781 C 27.8125 29.765625 27.960938 29.492188 28.132812 29.234375 C 28.304688 28.976562 28.5 28.738281 28.71875 28.519531 C 28.9375 28.300781 29.175781 28.105469 29.433594 27.933594 C 29.691406 27.757812 29.964844 27.613281 30.25 27.496094 C 30.535156 27.375 30.832031 27.285156 31.136719 27.222656 C 31.4375 27.164062 31.746094 27.132812 32.054688 27.128906 L 57.722656 27.128906 L 69.5625 21.59375 C 70.324219 21.210938 71.277344 21.59375 71.660156 22.355469 Z M 73.953125 27.128906 " fill-opacity="1" fill-rule="nonzero"/></g><path fill="#5cb6f9" d="M 74.402344 44.015625 L 81.972656 43.980469 C 82.734375 43.789062 83.5 42.789062 83.5 41.832031 L 83.5 36.488281 L 36.144531 36.488281 C 35.191406 36.488281 34.425781 35.722656 34.425781 34.960938 C 34.425781 34.730469 34.472656 34.511719 34.558594 34.300781 C 34.644531 34.089844 34.769531 33.90625 34.929688 33.746094 C 35.089844 33.582031 35.277344 33.457031 35.488281 33.371094 C 35.699219 33.285156 35.917969 33.242188 36.144531 33.242188 L 44.929688 33.242188 L 51.039062 30.375 L 32.679688 30.375 C 32.398438 30.378906 32.132812 30.433594 31.878906 30.542969 C 31.621094 30.648438 31.394531 30.800781 31.199219 30.996094 C 31.003906 31.195312 30.851562 31.421875 30.742188 31.675781 C 30.636719 31.933594 30.582031 32.199219 30.578125 32.476562 L 30.578125 72.957031 C 30.582031 73.234375 30.636719 73.5 30.742188 73.757812 C 30.851562 74.015625 31.003906 74.242188 31.199219 74.4375 C 31.394531 74.632812 31.621094 74.785156 31.878906 74.894531 C 32.132812 75 32.398438 75.054688 32.679688 75.058594 L 81.398438 75.058594 C 81.675781 75.054688 81.945312 75 82.199219 74.894531 C 82.457031 74.785156 82.683594 74.632812 82.878906 74.4375 C 83.074219 74.242188 83.226562 74.015625 83.335938 73.757812 C 83.441406 73.5 83.496094 73.234375 83.5 72.957031 L 83.5 63.601562 C 83.496094 63.324219 83.441406 63.054688 83.335938 62.800781 C 83.226562 62.542969 83.074219 62.316406 82.878906 62.121094 C 82.683594 61.925781 82.457031 61.773438 82.199219 61.664062 C 81.945312 61.558594 81.675781 61.503906 81.398438 61.5 L 71.726562 61.5 C 67.46875 61.5 66.574219 59.210938 66.574219 56.152344 L 66.574219 49.089844 C 66.574219 44.316406 69.820312 44.015625 74.402344 44.015625 Z M 74.402344 44.015625 " fill-opacity="1" fill-rule="nonzero"/><path fill="#f4f6fc" d="M 52.375 33.242188 L 73.378906 33.242188 L 69.371094 25.222656 Z M 52.375 33.242188 " fill-opacity="1" fill-rule="nonzero"/><path fill="#233dff" d="M 77.007812 33.242188 L 83.5 33.242188 L 83.5 32.476562 C 83.496094 32.199219 83.441406 31.933594 83.335938 31.675781 C 83.226562 31.421875 83.074219 31.195312 82.878906 30.996094 C 82.683594 30.800781 82.457031 30.648438 82.199219 30.542969 C 81.945312 30.433594 81.675781 30.378906 81.398438 30.375 L 75.480469 30.375 Z M 77.007812 33.242188 " fill-opacity="1" fill-rule="nonzero"/><path fill="#5cb6f9" d="M 87.320312 47.179688 L 71.726562 47.179688 C 70.582031 47.179688 69.820312 47.945312 69.820312 49.089844 L 69.820312 56.152344 C 69.820312 57.300781 70.582031 58.253906 71.726562 58.253906 L 87.320312 58.253906 C 87.597656 58.253906 87.863281 58.195312 88.121094 58.089844 C 88.375 57.980469 88.601562 57.832031 88.796875 57.632812 C 88.996094 57.4375 89.144531 57.210938 89.253906 56.953125 C 89.363281 56.699219 89.417969 56.433594 89.417969 56.152344 L 89.417969 49.089844 C 89.417969 47.945312 88.464844 47.179688 87.320312 47.179688 Z M 87.320312 47.179688 " fill-opacity="1" fill-rule="nonzero"/><path fill="#050a30" d="M 78.484375 52.71875 C 78.484375 53.105469 78.410156 53.480469 78.261719 53.839844 C 78.113281 54.203125 77.898438 54.519531 77.625 54.796875 C 77.347656 55.070312 77.03125 55.28125 76.671875 55.433594 C 76.3125 55.582031 75.9375 55.65625 75.546875 55.65625 C 75.15625 55.65625 74.78125 55.582031 74.421875 55.433594 C 74.0625 55.28125 73.746094 55.070312 73.46875 54.796875 C 73.191406 54.519531 72.980469 54.203125 72.832031 53.839844 C 72.683594 53.480469 72.609375 53.105469 72.609375 52.71875 C 72.609375 52.328125 72.683594 51.953125 72.832031 51.59375 C 72.980469 51.234375 73.191406 50.914062 73.46875 50.640625 C 73.746094 50.363281 74.0625 50.152344 74.421875 50.003906 C 74.78125 49.851562 75.15625 49.777344 75.546875 49.777344 C 75.9375 49.777344 76.3125 49.851562 76.671875 50.003906 C 77.03125 50.152344 77.347656 50.363281 77.625 50.640625 C 77.898438 50.914062 78.113281 51.234375 78.261719 51.59375 C 78.410156 51.953125 78.484375 52.328125 78.484375 52.71875 Z M 78.484375 52.71875 " fill-opacity="1" fill-rule="nonzero"/><g clip-path="url(#01a95cbcd8)"><path fill="#050a30" d="M 48.105469 71.671875 L 35.292969 71.671875 C 35.085938 71.671875 34.886719 71.632812 34.695312 71.554688 C 34.503906 71.476562 34.335938 71.363281 34.191406 71.214844 C 34.046875 71.070312 33.933594 70.902344 33.855469 70.710938 C 33.773438 70.519531 33.734375 70.320312 33.734375 70.117188 L 33.734375 57.636719 C 33.734375 57.429688 33.773438 57.230469 33.855469 57.039062 C 33.933594 56.851562 34.046875 56.679688 34.191406 56.535156 C 34.335938 56.390625 34.503906 56.277344 34.695312 56.199219 C 34.886719 56.117188 35.085938 56.078125 35.292969 56.078125 C 35.5 56.078125 35.699219 56.117188 35.886719 56.199219 C 36.078125 56.277344 36.246094 56.390625 36.394531 56.535156 C 36.539062 56.679688 36.652344 56.851562 36.730469 57.039062 C 36.808594 57.230469 36.851562 57.429688 36.851562 57.636719 L 36.851562 68.558594 L 48.105469 68.558594 C 48.3125 68.558594 48.507812 68.597656 48.699219 68.675781 C 48.890625 68.753906 49.058594 68.867188 49.207031 69.015625 C 49.351562 69.160156 49.464844 69.328125 49.542969 69.519531 C 49.621094 69.710938 49.660156 69.910156 49.660156 70.117188 C 49.660156 70.320312 49.621094 70.519531 49.542969 70.710938 C 49.464844 70.902344 49.351562 71.070312 49.207031 71.214844 C 49.058594 71.363281 48.890625 71.476562 48.699219 71.554688 C 48.507812 71.632812 48.3125 71.671875 48.105469 71.671875 Z M 48.105469 71.671875 " fill-opacity="1" fill-rule="nonzero"/></g></svg>